<?xml version="1.0" encoding="UTF-8"?>
<svg id="Layer_1" xmlns="http://www.w3.org/2000/svg" version="1.1" viewBox="0 0 282.66 151.11">
  <!-- Generator: Adobe Illustrator 29.1.0, SVG Export Plug-In . SVG Version: 2.1.0 Build 142)  -->
  <defs>
    <style>
      .st0 {
        fill: none;
      }

      .st0, .st1, .st2 {
        stroke: #231f20;
        stroke-miterlimit: 10;
      }

      .st3, .st4, .st1, .st2, .st5 {
        fill: #231f20;
      }

      .st4 {
        font-size: 26px;
        letter-spacing: -.04em;
      }

      .st4, .st5 {
        font-family: AdelleSansDevanagari-Thin, 'Adelle Sans Devanagari';
        font-weight: 200;
      }

      .st1 {
        stroke-width: .5px;
      }

      .st5 {
        font-size: 22px;
        letter-spacing: -.04em;
      }
    </style>
  </defs>
  <text class="st5" transform="translate(31.13 32.68)"><tspan x="0" y="0">The</tspan></text>
  <g>
    <path class="st3" d="M78.66,98.09c-1.12-2.87-2.48-6.33-4.09-10.37-1.61-4.04-3.32-8.3-5.15-12.77-1.83-4.48-3.7-9.05-5.62-13.72-1.92-4.67-3.55-8.58-5.51-13.29.68.1,1.34.18,1.97.26.63.07,1.24.11,1.83.11s1.19-.04,1.82-.11c.63-.07,1.3-.08,1.98-.17,1.07,3.21,2.24,6.5,3.53,10.03,1.29,3.53,2.65,7.12,4.09,10.77,1.44,3.65,2.91,7.35,4.42,11.1,1.51,3.75,3.04,7.47,4.6,11.17.88-2,1.82-4.22,2.85-6.68,1.02-2.46,2.06-5.01,3.1-7.67,1.05-2.65,2.08-5.35,3.1-8.1,1.02-2.75,2.01-5.39,2.96-7.92.95-2.53,1.81-4.89,2.59-7.08.78-2.19,1.43-4.09,1.97-5.69,1.07.24,1.97.36,2.7.36s1.63-.12,2.7-.36c-3.8,8.47-7.45,16.86-10.95,25.19-3.5,8.32-6.86,16.64-10.07,24.97-.78-.1-1.58-.15-2.41-.15-.97,0-1.78.05-2.41.15Z"/>
    <path class="st3" d="M104.28,81.88c0-5.99,1.42-10.68,4.27-14.09,2.85-3.41,7-5.11,12.45-5.11,2.58,0,4.81.4,6.68,1.2,1.87.8,3.44,1.87,4.71,3.21,1.26,1.34,2.2,2.91,2.81,4.71.61,1.8.91,3.72.91,5.77,0,.49-.01.96-.04,1.42-.03.46-.06.94-.11,1.42-2.63-.05-5.23-.1-7.81-.15-2.58-.05-5.18-.07-7.81-.07-1.61,0-3.2.02-4.78.07-1.58.05-3.18.1-4.78.15-.05.24-.07.61-.07,1.1v.95c0,1.9.28,3.68.84,5.33.56,1.65,1.37,3.08,2.45,4.27,1.07,1.19,2.38,2.14,3.94,2.85,1.56.71,3.36,1.06,5.4,1.06.97,0,1.97-.13,2.99-.4,1.02-.27,2.02-.63,2.99-1.09.97-.46,1.89-1.01,2.74-1.64.85-.63,1.59-1.31,2.23-2.04l.36.22-.44,3.58c-1.46,1.17-3.27,2.17-5.44,2.99-2.17.83-4.42,1.24-6.75,1.24-2.63,0-5.03-.4-7.19-1.2-2.17-.8-4.04-1.97-5.62-3.5-1.58-1.53-2.8-3.35-3.65-5.44-.85-2.09-1.28-4.35-1.28-6.79ZM121.14,65.02c-1.8,0-3.32.41-4.56,1.24-1.24.83-2.26,1.86-3.07,3.1-.8,1.24-1.41,2.6-1.83,4.09-.41,1.49-.67,2.88-.77,4.2,1.51.05,3.08.1,4.71.15,1.63.05,3.22.07,4.78.07s3.24-.02,4.89-.07c1.65-.05,3.26-.1,4.82-.15,0-1.31-.11-2.7-.33-4.16-.22-1.46-.66-2.82-1.31-4.09-.66-1.27-1.57-2.31-2.74-3.14-1.17-.83-2.7-1.24-4.6-1.24Z"/>
    <path class="st3" d="M145.63,58.67c-.03-1.95-.06-3.87-.11-5.77-.05-1.9-.11-3.71-.18-5.44-.07-1.73-.16-3.2-.26-4.42,1.36.24,2.46.37,3.29.37s1.92-.12,3.29-.37c-.1,1.22-.18,2.69-.26,4.42-.07,1.73-.13,3.54-.18,5.44-.05,1.9-.09,3.82-.11,5.77-.02,1.95-.04,3.75-.04,5.4v13.21c0,1.66.01,3.46.04,5.4.02,1.95.06,3.87.11,5.77.05,1.9.11,3.7.18,5.4.07,1.7.16,3.11.26,4.23-1.12-.1-2.22-.15-3.29-.15s-2.17.05-3.29.15c.1-1.12.18-2.53.26-4.23.07-1.7.13-3.5.18-5.4.05-1.9.08-3.82.11-5.77.02-1.95.04-3.75.04-5.4v-13.21c0-1.65-.01-3.46-.04-5.4Z"/>
    <path class="st3" d="M174.21,98.09c-2.24-5.74-4.49-11.48-6.75-17.23-2.26-5.74-4.73-11.56-7.41-17.45.63.1,1.24.18,1.82.26.58.07,1.19.11,1.83.11.53,0,1.07-.04,1.61-.11.53-.07,1.07-.16,1.61-.26,1.51,4.82,3.15,9.55,4.93,14.2,1.78,4.65,3.76,9.41,5.95,14.27.97-1.99,1.93-4.15,2.88-6.46.95-2.31,1.9-4.71,2.85-7.19s1.87-4.98,2.77-7.48c.9-2.51,1.79-4.95,2.67-7.34.88.24,1.63.36,2.26.36s1.39-.12,2.26-.36c-2.63,5.89-5.21,11.71-7.74,17.45-2.53,5.74-4.84,11.49-6.94,17.23-.73-.1-1.48-.15-2.26-.15s-1.56.05-2.34.15Z"/>
    <path class="st3" d="M196.7,81.88c0-5.99,1.42-10.68,4.27-14.09,2.85-3.41,7-5.11,12.45-5.11,2.58,0,4.8.4,6.68,1.2,1.87.8,3.44,1.87,4.71,3.21,1.27,1.34,2.2,2.91,2.81,4.71.61,1.8.91,3.72.91,5.77,0,.49-.01.96-.04,1.42-.03.46-.06.94-.11,1.42-2.63-.05-5.23-.1-7.81-.15-2.58-.05-5.18-.07-7.81-.07-1.61,0-3.2.02-4.78.07-1.58.05-3.18.1-4.78.15-.05.24-.07.61-.07,1.1v.95c0,1.9.28,3.68.84,5.33.56,1.65,1.38,3.08,2.45,4.27,1.07,1.19,2.38,2.14,3.94,2.85,1.56.71,3.36,1.06,5.4,1.06.97,0,1.97-.13,2.99-.4,1.02-.27,2.02-.63,2.99-1.09.97-.46,1.89-1.01,2.74-1.64.85-.63,1.59-1.31,2.23-2.04l.37.22-.44,3.58c-1.46,1.17-3.28,2.17-5.44,2.99-2.17.83-4.42,1.24-6.75,1.24-2.63,0-5.03-.4-7.19-1.2-2.17-.8-4.04-1.97-5.62-3.5s-2.8-3.35-3.65-5.44c-.85-2.09-1.28-4.35-1.28-6.79ZM213.56,65.02c-1.8,0-3.32.41-4.56,1.24-1.24.83-2.26,1.86-3.07,3.1-.8,1.24-1.41,2.6-1.82,4.09-.41,1.49-.67,2.88-.77,4.2,1.51.05,3.08.1,4.71.15,1.63.05,3.22.07,4.78.07s3.23-.02,4.89-.07c1.65-.05,3.26-.1,4.82-.15,0-1.31-.11-2.7-.33-4.16s-.66-2.82-1.31-4.09c-.66-1.27-1.57-2.31-2.74-3.14-1.17-.83-2.7-1.24-4.6-1.24Z"/>
    <path class="st3" d="M242.83,53.63c-.15,1.85-.26,3.66-.33,5.44-.07,1.78-.16,3.57-.26,5.37.54,0,1.53-.01,2.99-.04,1.46-.02,3.04-.08,4.75-.18-.05.15-.07.41-.07.8v1.53c0,.34.02.58.07.73-.63-.05-1.29-.08-1.97-.11-.68-.02-1.41-.04-2.19-.04h-3.58c-.05.2-.11.97-.18,2.34-.07,1.36-.13,2.98-.18,4.85-.05,1.87-.09,3.83-.11,5.88-.03,2.04-.04,3.87-.04,5.47,0,1.36.04,2.7.11,4.02.07,1.31.3,2.49.7,3.54.39,1.05.97,1.89,1.75,2.52.78.63,1.9.95,3.36.95.39,0,.91-.05,1.57-.15.66-.1,1.23-.22,1.72-.36v1.75c-.83.15-1.74.33-2.74.55-1,.22-1.96.33-2.88.33-3.07,0-5.33-.75-6.79-2.26-1.46-1.51-2.19-3.72-2.19-6.64,0-1.31.02-2.74.07-4.27.05-1.53.11-3.21.18-5.04.07-1.83.13-3.84.18-6.06.05-2.21.07-4.68.07-7.41h-2.34c-.39,0-.8.01-1.24.04-.44.02-.9.06-1.39.11.05-.29.08-.57.11-.84.02-.27.04-.55.04-.84,0-.24-.01-.49-.04-.73-.03-.24-.06-.49-.11-.73,2.19.15,3.79.22,4.82.22-.05-.97-.08-2.19-.11-3.65-.02-1.46-.08-2.97-.18-4.53l6.06-2.56h.37Z"/>
  </g>
  <text class="st4" transform="translate(169.69 123.69)"><tspan x="0" y="0">Lounge</tspan></text>
  <path class="st2" d="M60.82,52.67c-3.4-9.19-17.23-14.98-18.12,9.37-2.32-.32-3.37.6-3.37.6,0,0-4.39-7.58-2.01-15.35,4.04-13.19,21.52-13.63,28.13.94"/>
  <ellipse class="st3" cx="42.57" cy="67.97" rx="7.17" ry="1.12"/>
  <path class="st0" d="M35.84,67.97s-2.28,15.97,6.71,15.22,6.75-15.22,6.75-15.22"/>
  <line class="st0" x1="42.32" y1="83.19" x2="42.32" y2="96.3"/>
  <ellipse class="st1" cx="42.32" cy="97.19" rx="4.2" ry=".9"/>
  <path class="st3" d="M40.94,62.78s-1.1,4.05.32,3.83,1.53-1.24-.32-3.83Z"/>
</svg>